<svg width="842" height="264" viewBox="0 0 842 264" fill="none" xmlns="http://www.w3.org/2000/svg">
<path d="M398.344 85.1835L374.331 177.3H347.168L332.472 116.676L317.25 177.3H290.088L266.73 85.1835H290.744L303.997 152.237L320.399 85.1835H345.069L360.815 152.237L374.2 85.1835H398.344ZM405.792 131.11C405.792 122.013 407.76 113.921 411.697 106.835C415.633 99.6614 421.101 94.1064 428.099 90.1698C435.185 86.1458 443.19 84.1337 452.113 84.1337C463.048 84.1337 472.408 87.0206 480.194 92.7942C487.979 98.5679 493.184 106.441 495.809 116.414H471.139C469.302 112.565 466.678 109.634 463.266 107.622C459.942 105.61 456.137 104.604 451.85 104.604C444.939 104.604 439.34 107.01 435.054 111.821C430.767 116.633 428.624 123.062 428.624 131.11C428.624 139.159 430.767 145.588 435.054 150.4C439.34 155.211 444.939 157.617 451.85 157.617C456.137 157.617 459.942 156.611 463.266 154.599C466.678 152.587 469.302 149.656 471.139 145.807H495.809C493.184 155.78 487.979 163.653 480.194 169.427C472.408 175.113 463.048 177.956 452.113 177.956C443.19 177.956 435.185 175.988 428.099 172.051C421.101 168.027 415.633 162.472 411.697 155.386C407.76 148.3 405.792 140.208 405.792 131.11ZM542.88 178.35C535.706 178.35 529.233 176.819 523.459 173.757C517.773 170.695 513.268 166.321 509.944 160.635C506.707 154.949 505.088 148.3 505.088 140.69C505.088 133.166 506.751 126.562 510.075 120.875C513.399 115.102 517.948 110.684 523.722 107.622C529.495 104.56 535.969 103.029 543.142 103.029C550.316 103.029 556.789 104.56 562.563 107.622C568.337 110.684 572.886 115.102 576.21 120.875C579.534 126.562 581.196 133.166 581.196 140.69C581.196 148.213 579.49 154.861 576.079 160.635C572.754 166.321 568.162 170.695 562.3 173.757C556.527 176.819 550.053 178.35 542.88 178.35ZM542.88 158.929C547.166 158.929 550.797 157.354 553.771 154.205C556.833 151.056 558.364 146.551 558.364 140.69C558.364 134.828 556.877 130.323 553.902 127.174C551.015 124.025 547.429 122.45 543.142 122.45C538.768 122.45 535.138 124.025 532.251 127.174C529.364 130.236 527.921 134.741 527.921 140.69C527.921 146.551 529.32 151.056 532.12 154.205C535.007 157.354 538.593 158.929 542.88 158.929ZM629.842 122.712H617.77V177.3H595.331V122.712H587.195V104.079H595.331V101.98C595.331 92.9692 597.912 86.1458 603.073 81.5093C608.234 76.7854 615.801 74.4234 625.774 74.4234C627.436 74.4234 628.661 74.4672 629.448 74.5547V93.5816C625.162 93.3191 622.144 93.9315 620.394 95.4186C618.644 96.9058 617.77 99.5739 617.77 103.423V104.079H629.842V122.712ZM677.127 122.712H665.055V177.3H642.616V122.712H634.481V104.079H642.616V101.98C642.616 92.9692 645.197 86.1458 650.358 81.5093C655.52 76.7854 663.087 74.4234 673.059 74.4234C674.721 74.4234 675.946 74.4672 676.733 74.5547V93.5816C672.447 93.3191 669.429 93.9315 667.679 95.4186C665.93 96.9058 665.055 99.5739 665.055 103.423V104.079H677.127V122.712ZM756.693 139.509C756.693 141.608 756.561 143.795 756.299 146.07H705.517C705.867 150.619 707.31 154.118 709.847 156.567C712.471 158.929 715.664 160.11 719.426 160.11C725.025 160.11 728.918 157.748 731.105 153.024H754.987C753.762 157.836 751.531 162.166 748.295 166.015C745.145 169.864 741.165 172.882 736.354 175.069C731.542 177.256 726.162 178.35 720.213 178.35C713.04 178.35 706.654 176.819 701.055 173.757C695.457 170.695 691.083 166.321 687.933 160.635C684.784 154.949 683.209 148.3 683.209 140.69C683.209 133.079 684.74 126.43 687.802 120.744C690.951 115.058 695.325 110.684 700.924 107.622C706.523 104.56 712.953 103.029 720.213 103.029C727.299 103.029 733.598 104.517 739.109 107.491C744.62 110.465 748.907 114.708 751.969 120.219C755.118 125.73 756.693 132.16 756.693 139.509ZM733.729 133.604C733.729 129.755 732.417 126.693 729.793 124.418C727.168 122.144 723.888 121.007 719.951 121.007C716.189 121.007 712.996 122.1 710.372 124.287C707.835 126.474 706.26 129.58 705.648 133.604H733.729ZM837.552 139.509C837.552 141.608 837.421 143.795 837.158 146.07H786.376C786.726 150.619 788.169 154.118 790.706 156.567C793.331 158.929 796.524 160.11 800.285 160.11C805.884 160.11 809.777 157.748 811.964 153.024H835.846C834.621 157.836 832.39 162.166 829.154 166.015C826.004 169.864 822.024 172.882 817.213 175.069C812.401 177.256 807.021 178.35 801.073 178.35C793.899 178.35 787.513 176.819 781.915 173.757C776.316 170.695 771.942 166.321 768.793 160.635C765.643 154.949 764.069 148.3 764.069 140.69C764.069 133.079 765.599 126.43 768.661 120.744C771.811 115.058 776.185 110.684 781.783 107.622C787.382 104.56 793.812 103.029 801.073 103.029C808.159 103.029 814.457 104.517 819.968 107.491C825.48 110.465 829.766 114.708 832.828 120.219C835.977 125.73 837.552 132.16 837.552 139.509ZM814.588 133.604C814.588 129.755 813.276 126.693 810.652 124.418C808.027 122.144 804.747 121.007 800.81 121.007C797.049 121.007 793.856 122.1 791.231 124.287C788.694 126.474 787.12 129.58 786.507 133.604H814.588Z" fill="white"/>
<path fill-rule="evenodd" clip-rule="evenodd" d="M158.216 34.8185C161.666 35.9371 164.007 39.1397 164.023 42.7658C164.092 44.357 164.098 45.652 164.098 45.652C164.098 45.652 164.043 89.8116 111.755 130.463C90.4853 147 72.0373 173.881 67.2192 199.013C66.5859 202.374 63.9844 205.022 60.6335 205.711C57.2825 206.401 53.848 204.996 51.9381 202.153C37.0368 180.071 20.1382 138.804 48.3173 89.9355C73.7267 45.8733 120.641 23.3408 158.216 34.8185ZM147.088 48.7013C114.759 44.6918 83.0527 64.332 63.2822 98.5755C47.579 125.774 50.6083 156.66 58.3084 177.088C64.6662 158.162 77.0573 135.55 101.152 116.818C131.852 92.9502 143.789 61.8714 147.088 48.7013Z" fill="#2F6A62"/>
<path fill-rule="evenodd" clip-rule="evenodd" d="M84.5695 229.321C80.9652 228.168 78.5106 224.825 78.4958 221.041C78.4236 219.567 78.4157 218.406 78.4157 218.406C78.4157 218.406 78.471 174.246 130.758 133.595C151.837 117.207 170.144 90.6583 175.161 65.7252C175.855 62.2502 178.577 59.5317 182.057 58.8522C185.539 58.169 189.087 59.6535 191.04 62.612C205.831 84.8592 222.077 125.77 194.196 174.122C168.846 218.074 122.102 240.605 84.5695 229.321ZM95.4255 215.356C127.754 219.366 159.461 199.726 179.231 165.482C194.935 138.283 191.905 107.398 184.205 86.9695C177.847 105.896 165.456 128.507 141.362 147.24C110.662 171.107 98.7243 202.186 95.4255 215.356Z" fill="#2F6A62"/>
</svg>
