<svg width="624" height="195" viewBox="0 0 624 195" fill="none" xmlns="http://www.w3.org/2000/svg">
<path d="M294.922 62.7656L277.134 131H257.014L246.127 86.0936L234.852 131H214.732L197.43 62.7656H215.218L225.035 112.435L237.185 62.7656H255.458L267.122 112.435L277.037 62.7656H294.922ZM300.438 96.7856C300.438 90.0464 301.896 84.0524 304.812 78.8036C307.728 73.49 311.778 69.3752 316.962 66.4592C322.211 63.4784 328.14 61.988 334.75 61.988C342.85 61.988 349.784 64.1264 355.551 68.4032C361.318 72.68 365.174 78.512 367.118 85.8992H348.844C347.483 83.048 345.539 80.8772 343.012 79.3868C340.55 77.8964 337.731 77.1512 334.556 77.1512C329.436 77.1512 325.289 78.9332 322.114 82.4972C318.939 86.0612 317.351 90.824 317.351 96.7856C317.351 102.747 318.939 107.51 322.114 111.074C325.289 114.638 329.436 116.42 334.556 116.42C337.731 116.42 340.55 115.675 343.012 114.184C345.539 112.694 347.483 110.523 348.844 107.672H367.118C365.174 115.059 361.318 120.891 355.551 125.168C349.784 129.38 342.85 131.486 334.75 131.486C328.14 131.486 322.211 130.028 316.962 127.112C311.778 124.131 307.728 120.016 304.812 114.768C301.896 109.519 300.438 103.525 300.438 96.7856ZM401.985 131.778C396.672 131.778 391.876 130.644 387.6 128.376C383.388 126.108 380.05 122.868 377.588 118.656C375.19 114.444 373.992 109.519 373.992 103.881C373.992 98.3084 375.223 93.416 377.685 89.204C380.148 84.9272 383.517 81.6548 387.794 79.3868C392.071 77.1188 396.866 75.9848 402.18 75.9848C407.493 75.9848 412.288 77.1188 416.565 79.3868C420.842 81.6548 424.212 84.9272 426.674 89.204C429.136 93.416 430.368 98.3084 430.368 103.881C430.368 109.454 429.104 114.379 426.577 118.656C424.114 122.868 420.712 126.108 416.371 128.376C412.094 130.644 407.299 131.778 401.985 131.778ZM401.985 117.392C405.16 117.392 407.85 116.226 410.053 113.893C412.321 111.56 413.455 108.223 413.455 103.881C413.455 99.5396 412.353 96.2024 410.15 93.8696C408.012 91.5368 405.355 90.3704 402.18 90.3704C398.94 90.3704 396.25 91.5368 394.112 93.8696C391.974 96.1376 390.904 99.4748 390.904 103.881C390.904 108.223 391.941 111.56 394.015 113.893C396.153 116.226 398.81 117.392 401.985 117.392ZM466.401 90.5648H457.459V131H440.838V90.5648H434.811V76.7624H440.838V75.2072C440.838 68.5328 442.749 63.4784 446.573 60.044C450.396 56.5448 456.001 54.7952 463.388 54.7952C464.619 54.7952 465.527 54.8276 466.11 54.8924V68.9864C462.935 68.792 460.699 69.2456 459.403 70.3472C458.107 71.4488 457.459 73.4252 457.459 76.2764V76.7624H466.401V90.5648ZM501.428 90.5648H492.485V131H475.864V90.5648H469.838V76.7624H475.864V75.2072C475.864 68.5328 477.776 63.4784 481.599 60.044C485.422 56.5448 491.027 54.7952 498.414 54.7952C499.646 54.7952 500.553 54.8276 501.136 54.8924V68.9864C497.961 68.792 495.725 69.2456 494.429 70.3472C493.133 71.4488 492.485 73.4252 492.485 76.2764V76.7624H501.428V90.5648ZM560.365 103.006C560.365 104.562 560.268 106.182 560.073 107.866H522.457C522.716 111.236 523.785 113.828 525.665 115.642C527.609 117.392 529.974 118.267 532.76 118.267C536.907 118.267 539.791 116.517 541.411 113.018H559.101C558.194 116.582 556.542 119.79 554.144 122.641C551.811 125.492 548.863 127.728 545.299 129.348C541.735 130.968 537.75 131.778 533.343 131.778C528.03 131.778 523.299 130.644 519.152 128.376C515.005 126.108 511.765 122.868 509.432 118.656C507.099 114.444 505.933 109.519 505.933 103.881C505.933 98.2436 507.067 93.3188 509.335 89.1068C511.668 84.8948 514.908 81.6548 519.055 79.3868C523.202 77.1188 527.965 75.9848 533.343 75.9848C538.592 75.9848 543.258 77.0864 547.34 79.2896C551.423 81.4928 554.598 84.6356 556.866 88.718C559.199 92.8004 560.365 97.5632 560.365 103.006ZM543.355 98.6324C543.355 95.7812 542.383 93.5132 540.439 91.8284C538.495 90.1436 536.065 89.3012 533.149 89.3012C530.363 89.3012 527.997 90.1112 526.053 91.7312C524.174 93.3512 523.008 95.6516 522.554 98.6324H543.355ZM620.261 103.006C620.261 104.562 620.163 106.182 619.969 107.866H582.353C582.612 111.236 583.681 113.828 585.56 115.642C587.504 117.392 589.869 118.267 592.656 118.267C596.803 118.267 599.687 116.517 601.307 113.018H618.997C618.09 116.582 616.437 119.79 614.04 122.641C611.707 125.492 608.759 127.728 605.195 129.348C601.631 130.968 597.645 131.778 593.239 131.778C587.925 131.778 583.195 130.644 579.048 128.376C574.901 126.108 571.661 122.868 569.328 118.656C566.995 114.444 565.829 109.519 565.829 103.881C565.829 98.2436 566.963 93.3188 569.231 89.1068C571.563 84.8948 574.803 81.6548 578.951 79.3868C583.098 77.1188 587.861 75.9848 593.239 75.9848C598.488 75.9848 603.153 77.0864 607.236 79.2896C611.318 81.4928 614.493 84.6356 616.761 88.718C619.094 92.8004 620.261 97.5632 620.261 103.006ZM603.251 98.6324C603.251 95.7812 602.279 93.5132 600.335 91.8284C598.391 90.1436 595.961 89.3012 593.045 89.3012C590.258 89.3012 587.893 90.1112 585.949 91.7312C584.07 93.3512 582.903 95.6516 582.45 98.6324H603.251Z" fill="#202020"/>
<path fill-rule="evenodd" clip-rule="evenodd" d="M117.049 25.1618C119.604 25.9904 121.338 28.3627 121.351 31.0487C121.402 32.2273 121.406 33.1866 121.406 33.1866C121.406 33.1866 121.365 65.8975 82.6336 96.0092C66.8779 108.259 53.2127 128.171 49.6437 146.788C49.1746 149.277 47.2476 151.239 44.7654 151.749C42.2832 152.26 39.7392 151.22 38.3244 149.113C27.2864 132.756 14.7689 102.188 35.6423 65.9892C54.4641 33.3506 89.2156 16.6598 117.049 25.1618ZM108.806 35.4454C84.8586 32.4754 61.3722 47.0237 46.7274 72.3892C35.0954 92.5364 37.3394 115.415 43.0431 130.547C47.7526 116.527 56.9312 99.7781 74.7788 85.902C97.5198 68.2223 106.362 45.201 108.806 35.4454Z" fill="#2F6A62"/>
<path fill-rule="evenodd" clip-rule="evenodd" d="M62.4959 169.238C59.8261 168.384 58.0078 165.908 57.9969 163.104C57.9434 162.013 57.9375 161.152 57.9375 161.152C57.9375 161.152 57.9785 128.441 96.7097 98.3297C112.324 86.1905 125.884 66.5247 129.601 48.0557C130.115 45.4816 132.131 43.4679 134.709 42.9646C137.288 42.4585 139.916 43.5581 141.363 45.7496C152.319 62.2291 164.354 92.5336 143.701 128.35C124.923 160.906 90.2975 177.596 62.4959 169.238ZM70.5374 158.894C94.4847 161.864 117.971 147.315 132.616 121.95C144.248 101.802 142.004 78.9242 136.3 63.7922C131.591 77.8117 122.412 94.5608 104.565 108.437C81.8236 126.117 72.981 149.138 70.5374 158.894Z" fill="#2F6A62"/>
</svg>
